<?xml version="1.0" encoding="UTF-8" standalone="no"?>
<svg
   xmlns:dc="http://purl.org/dc/elements/1.1/"
   xmlns:cc="http://creativecommons.org/ns#"
   xmlns:rdf="http://www.w3.org/1999/02/22-rdf-syntax-ns#"
   xmlns:svg="http://www.w3.org/2000/svg"
   xmlns="http://www.w3.org/2000/svg"
   xmlns:sodipodi="http://sodipodi.sourceforge.net/DTD/sodipodi-0.dtd"
   xmlns:inkscape="http://www.inkscape.org/namespaces/inkscape"
   inkscape:version="1.0 (4035a4fb49, 2020-05-01)"
   sodipodi:docname="figure_2_timeseries.svg"
   viewBox="0 0 604 264"
   height="264"
   width="604"
   xml:space="preserve"
   id="svg2"
   version="1.1"><metadata
     id="metadata8"><rdf:RDF><cc:Work
         rdf:about=""><dc:format>image/svg+xml</dc:format><dc:type
           rdf:resource="http://purl.org/dc/dcmitype/StillImage" /><dc:title></dc:title></cc:Work></rdf:RDF></metadata><defs
     id="defs6"><clipPath
       id="clipPath26"
       clipPathUnits="userSpaceOnUse"><path
         id="path24"
         d="M 0,0 H 453.54 V 198.43 H 0 Z" /></clipPath><clipPath
       id="clipPath42"
       clipPathUnits="userSpaceOnUse"><path
         id="path40"
         d="m 0,99.21 h 453.54 v 99.21 H 0 Z" /></clipPath><clipPath
       id="clipPath54"
       clipPathUnits="userSpaceOnUse"><path
         id="path52"
         d="m 30.41,112.41 h 207.58 v 70.02 H 30.41 Z" /></clipPath><clipPath
       id="clipPath76"
       clipPathUnits="userSpaceOnUse"><path
         id="path74"
         d="m 241.98,112.41 h 207.58 v 70.02 H 241.98 Z" /></clipPath><clipPath
       id="clipPath98"
       clipPathUnits="userSpaceOnUse"><path
         id="path96"
         d="m 30.41,182.44 h 207.58 v 12 H 30.41 Z" /></clipPath><clipPath
       id="clipPath110"
       clipPathUnits="userSpaceOnUse"><path
         id="path108"
         d="m 30.41,182.44 h 207.58 v 12 H 30.41 Z" /></clipPath><clipPath
       id="clipPath118"
       clipPathUnits="userSpaceOnUse"><path
         id="path116"
         d="m 30.41,182.44 h 207.58 v 12 H 30.41 Z" /></clipPath><clipPath
       id="clipPath128"
       clipPathUnits="userSpaceOnUse"><path
         id="path126"
         d="m 241.98,182.44 h 207.58 v 12 H 241.98 Z" /></clipPath><clipPath
       id="clipPath140"
       clipPathUnits="userSpaceOnUse"><path
         id="path138"
         d="m 241.98,182.44 h 207.58 v 12 H 241.98 Z" /></clipPath><clipPath
       id="clipPath148"
       clipPathUnits="userSpaceOnUse"><path
         id="path146"
         d="m 241.98,182.44 h 207.58 v 12 H 241.98 Z" /></clipPath><clipPath
       id="clipPath438"
       clipPathUnits="userSpaceOnUse"><path
         id="path436"
         d="M 0,0 H 453.54 V 99.21 H 0 Z" /></clipPath><clipPath
       id="clipPath450"
       clipPathUnits="userSpaceOnUse"><path
         id="path448"
         d="m 41.72,13.2 h 181.4 V 83.22 H 41.72 Z" /></clipPath><clipPath
       id="clipPath472"
       clipPathUnits="userSpaceOnUse"><path
         id="path470"
         d="m 227.11,13.2 h 181.4 v 70.02 h -181.4 z" /></clipPath><clipPath
       id="clipPath494"
       clipPathUnits="userSpaceOnUse"><path
         id="path492"
         d="m 41.72,83.22 h 181.4 v 12 H 41.72 Z" /></clipPath><clipPath
       id="clipPath506"
       clipPathUnits="userSpaceOnUse"><path
         id="path504"
         d="m 41.72,83.22 h 181.4 v 12 H 41.72 Z" /></clipPath><clipPath
       id="clipPath514"
       clipPathUnits="userSpaceOnUse"><path
         id="path512"
         d="m 41.72,83.22 h 181.4 v 12 H 41.72 Z" /></clipPath><clipPath
       id="clipPath524"
       clipPathUnits="userSpaceOnUse"><path
         id="path522"
         d="m 227.11,83.22 h 181.4 v 12 h -181.4 z" /></clipPath><clipPath
       id="clipPath536"
       clipPathUnits="userSpaceOnUse"><path
         id="path534"
         d="m 227.11,83.22 h 181.4 v 12 h -181.4 z" /></clipPath><clipPath
       id="clipPath544"
       clipPathUnits="userSpaceOnUse"><path
         id="path542"
         d="m 227.11,83.22 h 181.4 v 12 h -181.4 z" /></clipPath></defs><sodipodi:namedview
     inkscape:current-layer="g10"
     inkscape:window-maximized="1"
     inkscape:window-y="-8"
     inkscape:window-x="-8"
     inkscape:cy="132"
     inkscape:cx="302"
     inkscape:zoom="1.9850993"
     showgrid="false"
     id="namedview4"
     inkscape:window-height="1017"
     inkscape:window-width="1920"
     inkscape:pageshadow="2"
     inkscape:pageopacity="0"
     guidetolerance="10"
     gridtolerance="10"
     objecttolerance="10"
     borderopacity="1"
     bordercolor="#666666"
     pagecolor="#ffffff" /><g
     transform="matrix(1.3333333,0,0,-1.3333333,0,264)"
     inkscape:label="figure_2_timeseries"
     inkscape:groupmode="layer"
     id="g10"><path
       id="path58"
       style="fill:none;stroke:#3399e6;stroke-width:1.07;stroke-linecap:butt;stroke-linejoin:round;stroke-miterlimit:10;stroke-dasharray:none;stroke-opacity:1"
       d="m 118.03,115.6 h 2.69 2.7 2.69 2.7 l 2.7,0.01 2.69,0.03 2.7,0.04 2.69,-0.01 2.7,0.02 2.7,0.12 2.69,0.2 2.7,0.59 2.69,0.9 2.7,1.56 2.7,0.21 2.69,1.31 2.7,1.02 2.69,1.41 2.7,2.11 2.69,2.78 2.7,2.47 2.7,-0.92 2.69,-0.22 2.7,3.11 2.69,1.13 2.7,5.41 2.7,1.32 2.69,1.65 2.7,1.41 2.69,-0.86 2.7,3.11 2.69,0.02 2.7,4.03 2.7,0.5 2.69,1.84 2.7,2.32 2.69,4.3 2.7,5.69 2.7,6.16 2.69,5.42 2.7,3.46" /><path
       id="path60"
       style="fill:none;stroke:#ee0000;stroke-width:1.07;stroke-linecap:butt;stroke-linejoin:round;stroke-miterlimit:10;stroke-dasharray:none;stroke-opacity:1"
       d="m 39.85,115.6 h 2.69 2.7 2.7 2.69 2.7 2.69 2.7 l 2.69,1.72 h 2.7 2.7 l 2.69,0.57 h 2.7 2.69 l 2.7,0.57 h 2.7 2.69 l 2.7,-0.57 h 2.69 2.7 l 2.69,-2.29 2.7,0.57 2.7,0.65 2.69,1.04 2.7,1.22 2.69,0.16 2.7,0.11 2.7,-0.06 2.69,0.35 2.7,-0.86 2.69,-0.56 2.7,0.23 2.69,4.13 2.7,-2.78 2.7,-0.03 2.69,0.61 2.7,0.33 2.69,-0.53 2.7,0.47 2.7,1.99 2.69,-1.52 2.7,-0.97 2.69,1.12 2.7,5.02 2.7,-7.19 2.69,2.32 2.7,1.47 2.69,-1.59 2.7,0.25 2.69,2.23 2.7,0.43 2.7,1.02 2.69,3.95 2.7,-0.05 2.69,-1.54 2.7,1.86 2.7,4.99 2.69,-1.65 2.7,-5.06 2.69,0.71 2.7,0.89 2.69,-3.67 2.7,-1.17 2.7,-0.21 2.69,-0.7 2.7,-2.68 2.69,-0.1 2.7,-0.26 2.7,-0.07 2.69,0.35 2.7,3.6" /><text
       y="-174.64703"
       x="172.38327"
       id="text64"
       style="font-variant:normal;font-weight:normal;font-size:5px;font-family:Helvetica;-inkscape-font-specification:Helvetica;writing-mode:lr-tb;fill:#000000;fill-opacity:1;fill-rule:nonzero;stroke:none"
       transform="scale(1,-1)"><tspan
         id="tspan62"
         sodipodi:role="line"
         y="-174.64703"
         x="172.38327 175.43828 176.82828 179.74828 181.13828 183.91827 185.30827 188.08827 189.47827 190.86827 193.64827 195.03827 197.95828 199.34828 202.12828 203.51828 206.29828">F = 0.1, p &gt; 0.05</tspan></text><path
       id="path66"
       style="fill:none;stroke:#666666;stroke-width:0.78;stroke-linecap:round;stroke-linejoin:round;stroke-miterlimit:10;stroke-dasharray:none;stroke-opacity:1"
       d="m 30.41,112.41 h 207.58 v 70.02 H 30.41 Z" /><path
       id="path78"
       style="fill:#ffffff;fill-opacity:1;fill-rule:nonzero;stroke:none"
       d="m 241.98,112.41 h 207.58 v 70.02 H 241.98 Z" /><path
       id="path80"
       style="fill:none;stroke:#3399e6;stroke-width:1.07;stroke-linecap:butt;stroke-linejoin:round;stroke-miterlimit:10;stroke-dasharray:none;stroke-opacity:1"
       d="m 305.33,115.6 h 2.7 2.69 2.7 2.69 2.7 2.7 2.69 2.7 2.69 2.7 2.69 2.7 2.7 2.69 l 2.7,0.04 2.69,0.02 2.7,0.02 2.7,0.11 2.69,0.3 2.7,0.27 2.69,0.38 2.7,0.8 2.69,0.81 2.7,2.28 2.7,0.58 2.69,2.18 2.7,2.03 2.69,2.67 2.7,3.89 2.7,3.65 2.69,0.27 2.7,-1.16 2.69,3.78 2.7,-0.12 2.7,4.01 2.69,0.49 2.7,4.01 2.69,0.08 2.7,1.89 2.69,-1.01 2.7,-1.57 2.7,2.23 2.69,4.19 2.7,-0.32 2.69,2.42 2.7,2.69 2.7,5.91 2.69,4.15 2.7,6.58 2.69,3.61" /><path
       id="path82"
       style="fill:none;stroke:#ee0000;stroke-width:1.07;stroke-linecap:butt;stroke-linejoin:round;stroke-miterlimit:10;stroke-dasharray:none;stroke-opacity:1"
       d="m 251.41,115.6 2.7,1.14 2.69,-1.14 2.7,1.14 2.7,-0.57 h 2.69 l 2.7,1.15 2.69,-0.58 2.7,6.31 2.7,-0.58 2.69,-1.72 h 2.7 l 2.69,2.3 2.7,-0.58 2.7,3.44 2.69,1.15 h 2.7 l 2.69,-3.44 2.7,0.57 2.69,0.58 2.7,0.32 2.7,-1.53 2.69,2.51 2.7,-1.74 2.69,2.44 2.7,4.71 2.7,-2.33 2.69,3.29 2.7,2.26 2.69,-10.33 2.7,3.51 2.69,-0.61 2.7,-0.37 2.7,2.52 2.69,0.21 2.7,-0.93 2.69,-1.4 2.7,-2.24 2.7,3.53 2.69,1.48 2.7,0.15 2.69,1.15 2.7,3.56 2.69,-0.77 2.7,-2.1 2.7,-1.9 2.69,1.18 2.7,-1.59 2.69,2.19 2.7,6.57 2.7,-3.46 2.69,-0.05 2.7,2.81 2.69,0.59 2.7,-0.32 2.7,3.12 2.69,2.43 2.7,-3 2.69,4.99 2.7,-0.43 2.69,-0.08 2.7,-4.48 2.7,0.43 2.69,0.68 2.7,-1.1 2.69,3.76 2.7,-0.03 2.7,1.1 2.69,-2.01 2.7,0.12 2.69,2.67" /><text
       y="-173.7"
       x="249.73999"
       id="text86"
       style="font-variant:normal;font-weight:normal;font-size:5px;font-family:Helvetica;-inkscape-font-specification:Helvetica;writing-mode:lr-tb;fill:#000000;fill-opacity:1;fill-rule:nonzero;stroke:none"
       transform="scale(1,-1)"><tspan
         id="tspan84"
         sodipodi:role="line"
         y="-173.7"
         x="249.73999 252.79501 254.185 257.10501 258.495 261.27499 264.05499 265.44501 268.22501 269.61499 271.005 273.785 275.17499 278.095 279.48502 282.26501 283.655 286.435 289.215">F = 12.7, p &lt; 0.001</tspan></text><path
       id="path88"
       style="fill:none;stroke:#666666;stroke-width:0.78;stroke-linecap:round;stroke-linejoin:round;stroke-miterlimit:10;stroke-dasharray:none;stroke-opacity:1"
       d="m 241.98,112.41 h 207.58 v 70.02 H 241.98 Z" /><text
       y="-186.28"
       x="106.76"
       id="text102"
       style="font-style:oblique;font-variant:normal;font-size:6px;font-family:Helvetica;-inkscape-font-specification:Helvetica-Oblique;writing-mode:lr-tb;fill:#1a1a1a;fill-opacity:1;fill-rule:nonzero;stroke:none"
       transform="scale(1,-1)"><tspan
         id="tspan100"
         sodipodi:role="line"
         y="-186.28"
         x="106.76 111.092 112.424 115.424 118.76 122.096 123.764 125.702 129.03799 131.036 134.036 137.37199 140.70801 143.70801 145.37601 146.70801 150.04401 153.38 155.31799 158.65401">Dicentrarchus labrax</tspan></text><text
       y="-186.28"
       x="326.91"
       id="text132"
       style="font-style:oblique;font-variant:normal;font-size:6px;font-family:Helvetica;-inkscape-font-specification:Helvetica-Oblique;writing-mode:lr-tb;fill:#1a1a1a;fill-opacity:1;fill-rule:nonzero;stroke:none"
       transform="scale(1,-1)"><tspan
         id="tspan130"
         sodipodi:role="line"
         y="-186.28"
         x="326.91 330.91199 334.24799 337.58401 339.672 343.008 346.008 347.67599 351.01199 354.34799 356.28601 359.62201 361.29001">Sparus aurata</tspan></text><path
       d="m 66.81,110.42 v 1.99"
       style="fill:none;stroke:#333333;stroke-width:0.78;stroke-linecap:butt;stroke-linejoin:round;stroke-miterlimit:10;stroke-dasharray:none;stroke-opacity:1"
       id="path170" /><path
       d="m 120.72,110.42 v 1.99"
       style="fill:none;stroke:#333333;stroke-width:0.78;stroke-linecap:butt;stroke-linejoin:round;stroke-miterlimit:10;stroke-dasharray:none;stroke-opacity:1"
       id="path172" /><path
       d="m 174.64,110.42 v 1.99"
       style="fill:none;stroke:#333333;stroke-width:0.78;stroke-linecap:butt;stroke-linejoin:round;stroke-miterlimit:10;stroke-dasharray:none;stroke-opacity:1"
       id="path174" /><path
       d="m 228.56,110.42 v 1.99"
       style="fill:none;stroke:#333333;stroke-width:0.78;stroke-linecap:butt;stroke-linejoin:round;stroke-miterlimit:10;stroke-dasharray:none;stroke-opacity:1"
       id="path176" /><text
       y="-104.52"
       x="60.130001"
       transform="scale(1,-1)"
       style="font-variant:normal;font-weight:normal;font-size:6px;font-family:Helvetica;-inkscape-font-specification:Helvetica;writing-mode:lr-tb;fill:#4d4d4d;fill-opacity:1;fill-rule:nonzero;stroke:none"
       id="text184"><tspan
         x="60.130001 63.466 66.802002 70.138"
         y="-104.52"
         sodipodi:role="line"
         id="tspan182">1960</tspan></text><text
       y="-104.52"
       x="114.05"
       transform="scale(1,-1)"
       style="font-variant:normal;font-weight:normal;font-size:6px;font-family:Helvetica;-inkscape-font-specification:Helvetica;writing-mode:lr-tb;fill:#4d4d4d;fill-opacity:1;fill-rule:nonzero;stroke:none"
       id="text188"><tspan
         x="114.05 117.386 120.722 124.058"
         y="-104.52"
         sodipodi:role="line"
         id="tspan186">1980</tspan></text><text
       y="-104.52"
       x="167.97"
       transform="scale(1,-1)"
       style="font-variant:normal;font-weight:normal;font-size:6px;font-family:Helvetica;-inkscape-font-specification:Helvetica;writing-mode:lr-tb;fill:#4d4d4d;fill-opacity:1;fill-rule:nonzero;stroke:none"
       id="text192"><tspan
         x="167.97 171.306 174.642 177.978"
         y="-104.52"
         sodipodi:role="line"
         id="tspan190">2000</tspan></text><text
       y="-104.52"
       x="221.89"
       transform="scale(1,-1)"
       style="font-variant:normal;font-weight:normal;font-size:6px;font-family:Helvetica;-inkscape-font-specification:Helvetica;writing-mode:lr-tb;fill:#4d4d4d;fill-opacity:1;fill-rule:nonzero;stroke:none"
       id="text196"><tspan
         x="221.89 225.226 228.562 231.89799"
         y="-104.52"
         sodipodi:role="line"
         id="tspan194">2020</tspan></text><path
       d="m 278.37,110.42 v 1.99"
       style="fill:none;stroke:#333333;stroke-width:0.78;stroke-linecap:butt;stroke-linejoin:round;stroke-miterlimit:10;stroke-dasharray:none;stroke-opacity:1"
       id="path214" /><path
       d="m 332.29,110.42 v 1.99"
       style="fill:none;stroke:#333333;stroke-width:0.78;stroke-linecap:butt;stroke-linejoin:round;stroke-miterlimit:10;stroke-dasharray:none;stroke-opacity:1"
       id="path216" /><path
       d="m 386.21,110.42 v 1.99"
       style="fill:none;stroke:#333333;stroke-width:0.78;stroke-linecap:butt;stroke-linejoin:round;stroke-miterlimit:10;stroke-dasharray:none;stroke-opacity:1"
       id="path218" /><path
       d="m 440.12,110.42 v 1.99"
       style="fill:none;stroke:#333333;stroke-width:0.78;stroke-linecap:butt;stroke-linejoin:round;stroke-miterlimit:10;stroke-dasharray:none;stroke-opacity:1"
       id="path220" /><text
       y="-104.52"
       x="271.70001"
       transform="scale(1,-1)"
       style="font-variant:normal;font-weight:normal;font-size:6px;font-family:Helvetica;-inkscape-font-specification:Helvetica;writing-mode:lr-tb;fill:#4d4d4d;fill-opacity:1;fill-rule:nonzero;stroke:none"
       id="text228"><tspan
         x="271.70001 275.03601 278.37201 281.70801"
         y="-104.52"
         sodipodi:role="line"
         id="tspan226">1960</tspan></text><text
       y="-104.52"
       x="325.62"
       transform="scale(1,-1)"
       style="font-variant:normal;font-weight:normal;font-size:6px;font-family:Helvetica;-inkscape-font-specification:Helvetica;writing-mode:lr-tb;fill:#4d4d4d;fill-opacity:1;fill-rule:nonzero;stroke:none"
       id="text232"><tspan
         x="325.62 328.95599 332.29199 335.62799"
         y="-104.52"
         sodipodi:role="line"
         id="tspan230">1980</tspan></text><text
       y="-104.52"
       x="379.53"
       transform="scale(1,-1)"
       style="font-variant:normal;font-weight:normal;font-size:6px;font-family:Helvetica;-inkscape-font-specification:Helvetica;writing-mode:lr-tb;fill:#4d4d4d;fill-opacity:1;fill-rule:nonzero;stroke:none"
       id="text236"><tspan
         x="379.53 382.866 386.202 389.53799"
         y="-104.52"
         sodipodi:role="line"
         id="tspan234">2000</tspan></text><text
       y="-104.52"
       x="433.45001"
       transform="scale(1,-1)"
       style="font-variant:normal;font-weight:normal;font-size:6px;font-family:Helvetica;-inkscape-font-specification:Helvetica;writing-mode:lr-tb;fill:#4d4d4d;fill-opacity:1;fill-rule:nonzero;stroke:none"
       id="text240"><tspan
         x="433.45001 436.78601 440.12201 443.45801"
         y="-104.52"
         sodipodi:role="line"
         id="tspan238">2020</tspan></text><text
       y="-113.44"
       x="23.49"
       transform="scale(1,-1)"
       style="font-variant:normal;font-weight:normal;font-size:6px;font-family:Helvetica;-inkscape-font-specification:Helvetica;writing-mode:lr-tb;fill:#4d4d4d;fill-opacity:1;fill-rule:nonzero;stroke:none"
       id="text264"><tspan
         x="23.49"
         y="-113.44"
         id="tspan262">0</tspan></text><text
       y="-130.64"
       x="13.48"
       transform="scale(1,-1)"
       style="font-variant:normal;font-weight:normal;font-size:6px;font-family:Helvetica;-inkscape-font-specification:Helvetica;writing-mode:lr-tb;fill:#4d4d4d;fill-opacity:1;fill-rule:nonzero;stroke:none"
       id="text268"><tspan
         x="13.48 16.816 20.152 23.488001"
         y="-130.64"
         sodipodi:role="line"
         id="tspan266">3000</tspan></text><text
       y="-147.84"
       x="13.48"
       transform="scale(1,-1)"
       style="font-variant:normal;font-weight:normal;font-size:6px;font-family:Helvetica;-inkscape-font-specification:Helvetica;writing-mode:lr-tb;fill:#4d4d4d;fill-opacity:1;fill-rule:nonzero;stroke:none"
       id="text272"><tspan
         x="13.48 16.816 20.152 23.488001"
         y="-147.84"
         sodipodi:role="line"
         id="tspan270">6000</tspan></text><text
       y="-165.03999"
       x="13.48"
       transform="scale(1,-1)"
       style="font-variant:normal;font-weight:normal;font-size:6px;font-family:Helvetica;-inkscape-font-specification:Helvetica;writing-mode:lr-tb;fill:#4d4d4d;fill-opacity:1;fill-rule:nonzero;stroke:none"
       id="text276"><tspan
         x="13.48 16.816 20.152 23.488001"
         y="-165.03999"
         sodipodi:role="line"
         id="tspan274">9000</tspan></text><path
       d="m 28.42,115.6 h 1.99"
       style="fill:none;stroke:#333333;stroke-width:0.78;stroke-linecap:butt;stroke-linejoin:round;stroke-miterlimit:10;stroke-dasharray:none;stroke-opacity:1"
       id="path282" /><path
       d="m 28.42,132.79 h 1.99"
       style="fill:none;stroke:#333333;stroke-width:0.78;stroke-linecap:butt;stroke-linejoin:round;stroke-miterlimit:10;stroke-dasharray:none;stroke-opacity:1"
       id="path284" /><path
       d="m 28.42,149.99 h 1.99"
       style="fill:none;stroke:#333333;stroke-width:0.78;stroke-linecap:butt;stroke-linejoin:round;stroke-miterlimit:10;stroke-dasharray:none;stroke-opacity:1"
       id="path286" /><path
       d="m 28.42,167.19 h 1.99"
       style="fill:none;stroke:#333333;stroke-width:0.78;stroke-linecap:butt;stroke-linejoin:round;stroke-miterlimit:10;stroke-dasharray:none;stroke-opacity:1"
       id="path288" /><text
       y="9.7299995"
       x="134.56"
       transform="matrix(0,1,1,0,0,0)"
       style="font-variant:normal;font-weight:normal;font-size:8px;font-family:Helvetica;-inkscape-font-specification:Helvetica;writing-mode:lr-tb;fill:#000000;fill-opacity:1;fill-rule:nonzero;stroke:none"
       id="text316"><tspan
         x="134.56 138.48801 142.936 147.384 151.832 156.28"
         y="9.7299995"
         sodipodi:role="line"
         id="tspan314">Tonnes</tspan></text><path
       d="m 46.55,166.44 h 7.2 v 7.2 h -7.2 z"
       style="fill:#ffffff;fill-opacity:1;fill-rule:nonzero;stroke:none"
       id="path344" /><path
       d="m 46.55,159.24 h 7.2 v 7.2 h -7.2 z"
       style="fill:#ffffff;fill-opacity:1;fill-rule:nonzero;stroke:none"
       id="path356" /><g
       transform="translate(-11.712261,6.4228525)"
       id="g1259"><path
         id="path350"
         style="fill:none;stroke:#3399e6;stroke-width:1.07;stroke-linecap:butt;stroke-linejoin:round;stroke-miterlimit:10;stroke-dasharray:none;stroke-opacity:1"
         d="m 47.27,170.04 h 5.76" /><path
         id="path362"
         style="fill:none;stroke:#ee0000;stroke-width:1.07;stroke-linecap:butt;stroke-linejoin:round;stroke-miterlimit:10;stroke-dasharray:none;stroke-opacity:1"
         d="m 47.27,162.84 h 5.76" /><text
         id="text374"
         style="font-variant:normal;font-weight:normal;font-size:5px;font-family:Helvetica;-inkscape-font-specification:Helvetica;writing-mode:lr-tb;fill:#000000;fill-opacity:1;fill-rule:nonzero;stroke:none"
         transform="scale(1,-1)"
         x="57.740002"
         y="-168.24001"><tspan
           id="tspan372"
           sodipodi:role="line"
           y="-168.24001"
           x="57.740002 61.075001 63.575001 66.074997 68.855003 71.635002 74.415001">Escapes</tspan></text><text
         id="text388"
         style="font-variant:normal;font-weight:normal;font-size:5px;font-family:Helvetica;-inkscape-font-specification:Helvetica;writing-mode:lr-tb;fill:#000000;fill-opacity:1;fill-rule:nonzero;stroke:none"
         transform="scale(1,-1)"
         x="57.740002"
         y="-161.03999"><tspan
           id="tspan386"
           sodipodi:role="line"
           y="-161.03999"
           x="57.740002 60.794998 61.904999 64.404999 67.184998 69.965004 71.705002 72.815002 75.595001 78.095001 79.485001 80.595001 83.375 86.154999 88.934998 90.044998 92.824997 95.605003">Fisheries landings</tspan></text></g><text
       y="-189.81"
       x="2.22"
       transform="scale(1,-1)"
       style="font-variant:normal;font-weight:normal;font-size:8px;font-family:Helvetica;-inkscape-font-specification:Helvetica;writing-mode:lr-tb;fill:#000000;fill-opacity:1;fill-rule:nonzero;stroke:none"
       id="text422"><tspan
         x="2.22"
         y="-189.81"
         id="tspan420">a</tspan></text><path
       id="path454"
       style="fill:none;stroke:#69b3a2;stroke-width:1.07;stroke-linecap:butt;stroke-linejoin:round;stroke-miterlimit:10;stroke-dasharray:none;stroke-opacity:1"
       d="m 115.93,32.5 3.3,-2.43 3.3,3.87 3.29,8.89 3.3,-14.93 3.3,-0.73 3.3,-1.04 3.3,0.43 3.3,-2.15 3.29,5.91 3.3,2.17 h 3.3 l 3.3,3.41 3.3,0.37 3.29,4.38 3.3,2.94 3.3,10.18 3.3,-8.13 3.3,-9.7 3.3,-2.55 3.29,0.96 3.3,-2.47 3.3,-2.56 3.3,-0.42 3.3,-0.61 3.3,-1.09 3.29,3.61 3.3,0.11 3.3,-0.96 3.3,3.01 3.3,16.68" /><path
       id="path456"
       style="fill:none;stroke:#3399e6;stroke-width:1.07;stroke-linecap:butt;stroke-linejoin:round;stroke-miterlimit:10;stroke-dasharray:none;stroke-opacity:1"
       d="m 79.65,16.38 h 3.3 3.29 l 3.3,0.01 h 3.3 3.3 l 3.3,0.03 3.3,0.04 3.29,-0.01 3.3,0.02 3.3,0.11 3.3,0.18 3.3,0.53 3.3,0.82 3.29,1.41 3.3,0.19 3.3,1.19 3.3,0.92 3.3,1.28 3.3,1.91 3.29,2.52 3.3,2.24 3.3,-0.83 3.3,-0.2 3.3,2.82 3.29,1.02 3.3,4.91 3.3,1.19 3.3,1.5 3.3,1.27 3.3,-0.78 3.29,2.83 3.3,0.01 3.3,3.66 3.3,0.44 3.3,1.68 3.3,2.1 3.29,3.89 3.3,5.16 3.3,5.59 3.3,4.91 3.3,3.13" /><text
       y="-75.140152"
       x="166.81068"
       id="text460"
       style="font-variant:normal;font-weight:normal;font-size:5px;font-family:Helvetica;-inkscape-font-specification:Helvetica;writing-mode:lr-tb;fill:#000000;fill-opacity:1;fill-rule:nonzero;stroke:none"
       transform="scale(1,-1)"><tspan
         id="tspan458"
         sodipodi:role="line"
         y="-75.140152"
         x="166.81068 169.86568 171.25568 174.17567 175.56567 178.34569 179.73569 182.51569 183.90569 185.29568 188.07568 189.46568 192.38568 193.77568 196.55568 197.94568 200.72568">F = 1.0, p &gt; 0.05</tspan></text><path
       id="path462"
       style="fill:none;stroke:#666666;stroke-width:0.78;stroke-linecap:round;stroke-linejoin:round;stroke-miterlimit:10;stroke-dasharray:none;stroke-opacity:1"
       d="m 41.72,13.2 h 181.4 V 83.22 H 41.72 Z" /><path
       id="path474"
       style="fill:#ffffff;fill-opacity:1;fill-rule:nonzero;stroke:none"
       d="m 227.11,13.2 h 181.4 v 70.02 h -181.4 z" /><path
       id="path476"
       style="fill:none;stroke:#69b3a2;stroke-width:1.07;stroke-linecap:butt;stroke-linejoin:round;stroke-miterlimit:10;stroke-dasharray:none;stroke-opacity:1"
       d="m 301.32,28.44 3.3,-1.09 3.29,0.72 3.3,5.27 3.3,-3.14 3.3,-4.46 3.3,0.16 3.3,-1.58 3.29,0.84 3.3,0.41 3.3,9.92 3.3,4.6 3.3,-0.82 3.3,1.41 3.29,1.85 3.3,0.3 3.3,0.33 3.3,4.21 3.3,3.35 3.3,2.63 3.29,-1.47 3.3,4.92 3.3,-7.88 3.3,1.63 3.3,1.67 3.29,2.7 3.3,10.85 3.3,5.14 3.3,0.3 3.3,-6.85 3.3,15.68" /><path
       id="path478"
       style="fill:none;stroke:#3399e6;stroke-width:1.07;stroke-linecap:butt;stroke-linejoin:round;stroke-miterlimit:10;stroke-dasharray:none;stroke-opacity:1"
       d="m 235.35,16.38 h 3.3 3.3 3.3 3.3 3.29 3.3 3.3 3.3 3.3 3.3 3.29 3.3 3.3 l 3.3,0.01 3.3,0.03 3.3,0.02 3.29,0.02 3.3,0.1 3.3,0.27 3.3,0.24 3.3,0.35 3.29,0.72 3.3,0.74 3.3,2.06 3.3,0.53 3.3,1.98 3.3,1.83 3.29,2.43 3.3,3.52 3.3,3.31 3.3,0.25 3.3,-1.06 3.3,3.43 3.29,-0.11 3.3,3.63 3.3,0.45 3.3,3.63 3.3,0.08 3.3,1.71 3.29,-0.92 3.3,-1.42 3.3,2.02 3.3,3.8 3.3,-0.29 3.29,2.19 3.3,2.44 3.3,5.35 3.3,3.76 3.3,5.97 3.3,3.27" /><text
       y="-74.959999"
       x="233.11"
       id="text482"
       style="font-variant:normal;font-weight:normal;font-size:5px;font-family:Helvetica;-inkscape-font-specification:Helvetica;writing-mode:lr-tb;fill:#000000;fill-opacity:1;fill-rule:nonzero;stroke:none"
       transform="scale(1,-1)"><tspan
         id="tspan480"
         sodipodi:role="line"
         y="-74.959999"
         x="233.11 236.16499 237.55499 240.47501 241.86501 244.645 247.425 248.815 251.595 252.98499 254.375 257.155 258.54501 261.465 262.85501 265.63501 267.02499 269.80499 272.58499">F = 15.5, p &lt; 0.001</tspan></text><path
       id="path484"
       style="fill:none;stroke:#666666;stroke-width:0.78;stroke-linecap:round;stroke-linejoin:round;stroke-miterlimit:10;stroke-dasharray:none;stroke-opacity:1"
       d="m 227.11,13.2 h 181.4 v 70.02 h -181.4 z" /><text
       y="-87.07"
       x="104.97"
       id="text498"
       style="font-style:oblique;font-variant:normal;font-size:6px;font-family:Helvetica;-inkscape-font-specification:Helvetica-Oblique;writing-mode:lr-tb;fill:#1a1a1a;fill-opacity:1;fill-rule:nonzero;stroke:none"
       transform="scale(1,-1)"><tspan
         id="tspan496"
         sodipodi:role="line"
         y="-87.07"
         x="104.97 109.302 110.634 113.634 116.97 120.306 121.974 123.912 127.248 129.246 132.246 135.582 138.918 141.918 143.586 144.918 148.254 151.59 153.528 156.864">Dicentrarchus labrax</tspan></text><path
       d="M 49.96,11.21 V 13.2"
       style="fill:none;stroke:#333333;stroke-width:0.78;stroke-linecap:butt;stroke-linejoin:round;stroke-miterlimit:10;stroke-dasharray:none;stroke-opacity:1"
       id="path566" /><path
       d="M 82.95,11.21 V 13.2"
       style="fill:none;stroke:#333333;stroke-width:0.78;stroke-linecap:butt;stroke-linejoin:round;stroke-miterlimit:10;stroke-dasharray:none;stroke-opacity:1"
       id="path568" /><text
       y="-87.07"
       x="298.95001"
       id="text528"
       style="font-style:oblique;font-variant:normal;font-size:6px;font-family:Helvetica;-inkscape-font-specification:Helvetica-Oblique;writing-mode:lr-tb;fill:#1a1a1a;fill-opacity:1;fill-rule:nonzero;stroke:none"
       transform="scale(1,-1)"><tspan
         id="tspan526"
         sodipodi:role="line"
         y="-87.07"
         x="298.95001 302.952 306.28799 309.62399 311.71201 315.048 318.048 319.716 323.052 326.388 328.32599 331.66199 333.32999">Sparus aurata</tspan></text><path
       d="M 115.93,11.21 V 13.2"
       style="fill:none;stroke:#333333;stroke-width:0.78;stroke-linecap:butt;stroke-linejoin:round;stroke-miterlimit:10;stroke-dasharray:none;stroke-opacity:1"
       id="path570" /><path
       d="M 148.91,11.21 V 13.2"
       style="fill:none;stroke:#333333;stroke-width:0.78;stroke-linecap:butt;stroke-linejoin:round;stroke-miterlimit:10;stroke-dasharray:none;stroke-opacity:1"
       id="path572" /><path
       d="M 181.89,11.21 V 13.2"
       style="fill:none;stroke:#333333;stroke-width:0.78;stroke-linecap:butt;stroke-linejoin:round;stroke-miterlimit:10;stroke-dasharray:none;stroke-opacity:1"
       id="path574" /><path
       d="M 214.88,11.21 V 13.2"
       style="fill:none;stroke:#333333;stroke-width:0.78;stroke-linecap:butt;stroke-linejoin:round;stroke-miterlimit:10;stroke-dasharray:none;stroke-opacity:1"
       id="path576" /><text
       y="-5.3099999"
       x="43.290001"
       transform="scale(1,-1)"
       style="font-variant:normal;font-weight:normal;font-size:6px;font-family:Helvetica;-inkscape-font-specification:Helvetica;writing-mode:lr-tb;fill:#4d4d4d;fill-opacity:1;fill-rule:nonzero;stroke:none"
       id="text584"><tspan
         x="43.290001 46.625999 49.962002 53.298"
         y="-5.3099999"
         sodipodi:role="line"
         id="tspan582">1970</tspan></text><text
       y="-5.3099999"
       x="76.269997"
       transform="scale(1,-1)"
       style="font-variant:normal;font-weight:normal;font-size:6px;font-family:Helvetica;-inkscape-font-specification:Helvetica;writing-mode:lr-tb;fill:#4d4d4d;fill-opacity:1;fill-rule:nonzero;stroke:none"
       id="text588"><tspan
         x="76.269997 79.606003 82.942001 86.278"
         y="-5.3099999"
         sodipodi:role="line"
         id="tspan586">1980</tspan></text><text
       y="-5.3099999"
       x="109.26"
       transform="scale(1,-1)"
       style="font-variant:normal;font-weight:normal;font-size:6px;font-family:Helvetica;-inkscape-font-specification:Helvetica;writing-mode:lr-tb;fill:#4d4d4d;fill-opacity:1;fill-rule:nonzero;stroke:none"
       id="text592"><tspan
         x="109.26 112.596 115.932 119.268"
         y="-5.3099999"
         sodipodi:role="line"
         id="tspan590">1990</tspan></text><text
       y="-5.3099999"
       x="142.24001"
       transform="scale(1,-1)"
       style="font-variant:normal;font-weight:normal;font-size:6px;font-family:Helvetica;-inkscape-font-specification:Helvetica;writing-mode:lr-tb;fill:#4d4d4d;fill-opacity:1;fill-rule:nonzero;stroke:none"
       id="text596"><tspan
         x="142.24001 145.576 148.912 152.248"
         y="-5.3099999"
         sodipodi:role="line"
         id="tspan594">2000</tspan></text><text
       y="-5.3099999"
       x="175.22"
       transform="scale(1,-1)"
       style="font-variant:normal;font-weight:normal;font-size:6px;font-family:Helvetica;-inkscape-font-specification:Helvetica;writing-mode:lr-tb;fill:#4d4d4d;fill-opacity:1;fill-rule:nonzero;stroke:none"
       id="text600"><tspan
         x="175.22 178.556 181.892 185.228"
         y="-5.3099999"
         sodipodi:role="line"
         id="tspan598">2010</tspan></text><text
       y="-5.3099999"
       x="208.2"
       transform="scale(1,-1)"
       style="font-variant:normal;font-weight:normal;font-size:6px;font-family:Helvetica;-inkscape-font-specification:Helvetica;writing-mode:lr-tb;fill:#4d4d4d;fill-opacity:1;fill-rule:nonzero;stroke:none"
       id="text604"><tspan
         x="208.2 211.536 214.87199 218.20801"
         y="-5.3099999"
         sodipodi:role="line"
         id="tspan602">2020</tspan></text><path
       d="M 235.35,11.21 V 13.2"
       style="fill:none;stroke:#333333;stroke-width:0.78;stroke-linecap:butt;stroke-linejoin:round;stroke-miterlimit:10;stroke-dasharray:none;stroke-opacity:1"
       id="path622" /><path
       d="M 268.34,11.21 V 13.2"
       style="fill:none;stroke:#333333;stroke-width:0.78;stroke-linecap:butt;stroke-linejoin:round;stroke-miterlimit:10;stroke-dasharray:none;stroke-opacity:1"
       id="path624" /><path
       d="M 301.32,11.21 V 13.2"
       style="fill:none;stroke:#333333;stroke-width:0.78;stroke-linecap:butt;stroke-linejoin:round;stroke-miterlimit:10;stroke-dasharray:none;stroke-opacity:1"
       id="path626" /><path
       d="M 334.3,11.21 V 13.2"
       style="fill:none;stroke:#333333;stroke-width:0.78;stroke-linecap:butt;stroke-linejoin:round;stroke-miterlimit:10;stroke-dasharray:none;stroke-opacity:1"
       id="path628" /><path
       d="M 367.28,11.21 V 13.2"
       style="fill:none;stroke:#333333;stroke-width:0.78;stroke-linecap:butt;stroke-linejoin:round;stroke-miterlimit:10;stroke-dasharray:none;stroke-opacity:1"
       id="path630" /><path
       d="M 400.27,11.21 V 13.2"
       style="fill:none;stroke:#333333;stroke-width:0.78;stroke-linecap:butt;stroke-linejoin:round;stroke-miterlimit:10;stroke-dasharray:none;stroke-opacity:1"
       id="path632" /><text
       y="-5.3099999"
       x="228.67999"
       transform="scale(1,-1)"
       style="font-variant:normal;font-weight:normal;font-size:6px;font-family:Helvetica;-inkscape-font-specification:Helvetica;writing-mode:lr-tb;fill:#4d4d4d;fill-opacity:1;fill-rule:nonzero;stroke:none"
       id="text640"><tspan
         x="228.67999 232.01601 235.35201 238.688"
         y="-5.3099999"
         sodipodi:role="line"
         id="tspan638">1970</tspan></text><text
       y="-5.3099999"
       x="261.66"
       transform="scale(1,-1)"
       style="font-variant:normal;font-weight:normal;font-size:6px;font-family:Helvetica;-inkscape-font-specification:Helvetica;writing-mode:lr-tb;fill:#4d4d4d;fill-opacity:1;fill-rule:nonzero;stroke:none"
       id="text644"><tspan
         x="261.66 264.996 268.332 271.668"
         y="-5.3099999"
         sodipodi:role="line"
         id="tspan642">1980</tspan></text><text
       y="-5.3099999"
       x="294.64999"
       transform="scale(1,-1)"
       style="font-variant:normal;font-weight:normal;font-size:6px;font-family:Helvetica;-inkscape-font-specification:Helvetica;writing-mode:lr-tb;fill:#4d4d4d;fill-opacity:1;fill-rule:nonzero;stroke:none"
       id="text648"><tspan
         x="294.64999 297.98599 301.32199 304.65799"
         y="-5.3099999"
         sodipodi:role="line"
         id="tspan646">1990</tspan></text><text
       y="-5.3099999"
       x="327.63"
       transform="scale(1,-1)"
       style="font-variant:normal;font-weight:normal;font-size:6px;font-family:Helvetica;-inkscape-font-specification:Helvetica;writing-mode:lr-tb;fill:#4d4d4d;fill-opacity:1;fill-rule:nonzero;stroke:none"
       id="text652"><tspan
         x="327.63 330.966 334.302 337.638"
         y="-5.3099999"
         sodipodi:role="line"
         id="tspan650">2000</tspan></text><text
       y="-5.3099999"
       x="360.60999"
       transform="scale(1,-1)"
       style="font-variant:normal;font-weight:normal;font-size:6px;font-family:Helvetica;-inkscape-font-specification:Helvetica;writing-mode:lr-tb;fill:#4d4d4d;fill-opacity:1;fill-rule:nonzero;stroke:none"
       id="text656"><tspan
         x="360.60999 363.94601 367.28201 370.61801"
         y="-5.3099999"
         sodipodi:role="line"
         id="tspan654">2010</tspan></text><text
       y="-5.3099999"
       x="393.59"
       transform="scale(1,-1)"
       style="font-variant:normal;font-weight:normal;font-size:6px;font-family:Helvetica;-inkscape-font-specification:Helvetica;writing-mode:lr-tb;fill:#4d4d4d;fill-opacity:1;fill-rule:nonzero;stroke:none"
       id="text660"><tspan
         x="393.59 396.92599 400.26199 403.59799"
         y="-5.3099999"
         sodipodi:role="line"
         id="tspan658">2020</tspan></text><text
       y="-14.23"
       x="34.799999"
       transform="scale(1,-1)"
       style="font-variant:normal;font-weight:normal;font-size:6px;font-family:Helvetica;-inkscape-font-specification:Helvetica;writing-mode:lr-tb;fill:#4d4d4d;fill-opacity:1;fill-rule:nonzero;stroke:none"
       id="text684"><tspan
         x="34.799999"
         y="-14.23"
         id="tspan682">0</tspan></text><text
       y="-27.219999"
       x="24.790001"
       transform="scale(1,-1)"
       style="font-variant:normal;font-weight:normal;font-size:6px;font-family:Helvetica;-inkscape-font-specification:Helvetica;writing-mode:lr-tb;fill:#4d4d4d;fill-opacity:1;fill-rule:nonzero;stroke:none"
       id="text688"><tspan
         x="24.790001 28.125999 31.462 34.798"
         y="-27.219999"
         sodipodi:role="line"
         id="tspan686">2500</tspan></text><text
       y="-40.209999"
       x="24.790001"
       transform="scale(1,-1)"
       style="font-variant:normal;font-weight:normal;font-size:6px;font-family:Helvetica;-inkscape-font-specification:Helvetica;writing-mode:lr-tb;fill:#4d4d4d;fill-opacity:1;fill-rule:nonzero;stroke:none"
       id="text692"><tspan
         x="24.790001 28.125999 31.462 34.798"
         y="-40.209999"
         sodipodi:role="line"
         id="tspan690">5000</tspan></text><text
       y="-53.200001"
       x="24.790001"
       transform="scale(1,-1)"
       style="font-variant:normal;font-weight:normal;font-size:6px;font-family:Helvetica;-inkscape-font-specification:Helvetica;writing-mode:lr-tb;fill:#4d4d4d;fill-opacity:1;fill-rule:nonzero;stroke:none"
       id="text696"><tspan
         x="24.790001 28.125999 31.462 34.798"
         y="-53.200001"
         sodipodi:role="line"
         id="tspan694">7500</tspan></text><text
       y="-66.190002"
       x="21.450001"
       transform="scale(1,-1)"
       style="font-variant:normal;font-weight:normal;font-size:6px;font-family:Helvetica;-inkscape-font-specification:Helvetica;writing-mode:lr-tb;fill:#4d4d4d;fill-opacity:1;fill-rule:nonzero;stroke:none"
       id="text700"><tspan
         x="21.450001 24.785999 28.122 31.458 34.793999"
         y="-66.190002"
         sodipodi:role="line"
         id="tspan698">10000</tspan></text><text
       y="-79.18"
       x="21.450001"
       transform="scale(1,-1)"
       style="font-variant:normal;font-weight:normal;font-size:6px;font-family:Helvetica;-inkscape-font-specification:Helvetica;writing-mode:lr-tb;fill:#4d4d4d;fill-opacity:1;fill-rule:nonzero;stroke:none"
       id="text704"><tspan
         x="21.450001 24.785999 28.122 31.458 34.793999"
         y="-79.18"
         sodipodi:role="line"
         id="tspan702">12500</tspan></text><path
       d="m 39.73,16.38 h 1.99"
       style="fill:none;stroke:#333333;stroke-width:0.78;stroke-linecap:butt;stroke-linejoin:round;stroke-miterlimit:10;stroke-dasharray:none;stroke-opacity:1"
       id="path710" /><path
       d="m 39.73,29.37 h 1.99"
       style="fill:none;stroke:#333333;stroke-width:0.78;stroke-linecap:butt;stroke-linejoin:round;stroke-miterlimit:10;stroke-dasharray:none;stroke-opacity:1"
       id="path712" /><path
       d="m 39.73,42.36 h 1.99"
       style="fill:none;stroke:#333333;stroke-width:0.78;stroke-linecap:butt;stroke-linejoin:round;stroke-miterlimit:10;stroke-dasharray:none;stroke-opacity:1"
       id="path714" /><path
       d="m 39.73,55.35 h 1.99"
       style="fill:none;stroke:#333333;stroke-width:0.78;stroke-linecap:butt;stroke-linejoin:round;stroke-miterlimit:10;stroke-dasharray:none;stroke-opacity:1"
       id="path716" /><path
       d="m 39.73,68.34 h 1.99"
       style="fill:none;stroke:#333333;stroke-width:0.78;stroke-linecap:butt;stroke-linejoin:round;stroke-miterlimit:10;stroke-dasharray:none;stroke-opacity:1"
       id="path718" /><path
       d="m 39.73,81.33 h 1.99"
       style="fill:none;stroke:#333333;stroke-width:0.78;stroke-linecap:butt;stroke-linejoin:round;stroke-miterlimit:10;stroke-dasharray:none;stroke-opacity:1"
       id="path720" /><path
       d="m 408.51,16.38 h 1.99"
       style="fill:none;stroke:#333333;stroke-width:0.78;stroke-linecap:butt;stroke-linejoin:round;stroke-miterlimit:10;stroke-dasharray:none;stroke-opacity:1"
       id="path738" /><path
       d="m 408.51,29.37 h 1.99"
       style="fill:none;stroke:#333333;stroke-width:0.78;stroke-linecap:butt;stroke-linejoin:round;stroke-miterlimit:10;stroke-dasharray:none;stroke-opacity:1"
       id="path740" /><path
       d="m 408.51,42.36 h 1.99"
       style="fill:none;stroke:#333333;stroke-width:0.78;stroke-linecap:butt;stroke-linejoin:round;stroke-miterlimit:10;stroke-dasharray:none;stroke-opacity:1"
       id="path742" /><path
       d="m 408.51,55.35 h 1.99"
       style="fill:none;stroke:#333333;stroke-width:0.78;stroke-linecap:butt;stroke-linejoin:round;stroke-miterlimit:10;stroke-dasharray:none;stroke-opacity:1"
       id="path744" /><path
       d="m 408.51,68.34 h 1.99"
       style="fill:none;stroke:#333333;stroke-width:0.78;stroke-linecap:butt;stroke-linejoin:round;stroke-miterlimit:10;stroke-dasharray:none;stroke-opacity:1"
       id="path746" /><path
       d="m 408.51,81.33 h 1.99"
       style="fill:none;stroke:#333333;stroke-width:0.78;stroke-linecap:butt;stroke-linejoin:round;stroke-miterlimit:10;stroke-dasharray:none;stroke-opacity:1"
       id="path748" /><text
       y="-14.23"
       x="412.10001"
       transform="scale(1,-1)"
       style="font-variant:normal;font-weight:normal;font-size:6px;font-family:Helvetica;-inkscape-font-specification:Helvetica;writing-mode:lr-tb;fill:#4d4d4d;fill-opacity:1;fill-rule:nonzero;stroke:none"
       id="text756"><tspan
         x="412.10001 415.436 417.104 420.44 423.776"
         y="-14.23"
         sodipodi:role="line"
         id="tspan754">0.000</tspan></text><text
       y="-27.219999"
       x="412.10001"
       transform="scale(1,-1)"
       style="font-variant:normal;font-weight:normal;font-size:6px;font-family:Helvetica;-inkscape-font-specification:Helvetica;writing-mode:lr-tb;fill:#4d4d4d;fill-opacity:1;fill-rule:nonzero;stroke:none"
       id="text760"><tspan
         x="412.10001 415.436 417.104 420.44 423.776"
         y="-27.219999"
         sodipodi:role="line"
         id="tspan758">0.025</tspan></text><text
       y="-40.209999"
       x="412.10001"
       transform="scale(1,-1)"
       style="font-variant:normal;font-weight:normal;font-size:6px;font-family:Helvetica;-inkscape-font-specification:Helvetica;writing-mode:lr-tb;fill:#4d4d4d;fill-opacity:1;fill-rule:nonzero;stroke:none"
       id="text764"><tspan
         x="412.10001 415.436 417.104 420.44 423.776"
         y="-40.209999"
         sodipodi:role="line"
         id="tspan762">0.050</tspan></text><text
       y="-53.200001"
       x="412.10001"
       transform="scale(1,-1)"
       style="font-variant:normal;font-weight:normal;font-size:6px;font-family:Helvetica;-inkscape-font-specification:Helvetica;writing-mode:lr-tb;fill:#4d4d4d;fill-opacity:1;fill-rule:nonzero;stroke:none"
       id="text768"><tspan
         x="412.10001 415.436 417.104 420.44 423.776"
         y="-53.200001"
         sodipodi:role="line"
         id="tspan766">0.075</tspan></text><text
       y="-66.190002"
       x="412.10001"
       transform="scale(1,-1)"
       style="font-variant:normal;font-weight:normal;font-size:6px;font-family:Helvetica;-inkscape-font-specification:Helvetica;writing-mode:lr-tb;fill:#4d4d4d;fill-opacity:1;fill-rule:nonzero;stroke:none"
       id="text772"><tspan
         x="412.10001 415.436 417.104 420.44 423.776"
         y="-66.190002"
         sodipodi:role="line"
         id="tspan770">0.100</tspan></text><text
       y="-79.18"
       x="412.10001"
       transform="scale(1,-1)"
       style="font-variant:normal;font-weight:normal;font-size:6px;font-family:Helvetica;-inkscape-font-specification:Helvetica;writing-mode:lr-tb;fill:#4d4d4d;fill-opacity:1;fill-rule:nonzero;stroke:none"
       id="text776"><tspan
         x="412.10001 415.436 417.104 420.44 423.776"
         y="-79.18"
         sodipodi:role="line"
         id="tspan774">0.125</tspan></text><text
       y="9.7299995"
       x="35.349998"
       transform="matrix(0,1,1,0,0,0)"
       style="font-variant:normal;font-weight:normal;font-size:8px;font-family:Helvetica;-inkscape-font-specification:Helvetica;writing-mode:lr-tb;fill:#000000;fill-opacity:1;fill-rule:nonzero;stroke:none"
       id="text800"><tspan
         x="35.349998 39.278 43.726002 48.174 52.621998 57.07"
         y="9.7299995"
         sodipodi:role="line"
         id="tspan798">Tonnes</tspan></text><text
       y="-442.04999"
       x="-93.68"
       transform="matrix(0,-1,-1,0,0,0)"
       style="font-variant:normal;font-weight:normal;font-size:8px;font-family:Helvetica;-inkscape-font-specification:Helvetica;writing-mode:lr-tb;fill:#000000;fill-opacity:1;fill-rule:nonzero;stroke:none"
       id="text808"><tspan
         x="-93.68 -89.232002 -83.895996 -78.120003 -72.783997 -70.559998 -67.895996 -65.671997 -61.223999 -56.776001 -52.327999 -47.880001 -43.880001 -41.656002 -37.208 -32.760002 -30.096001 -27.872002 -24.071999 -19.624001 -15.624001 -11.624001 -7.176002 -5.400001"
         y="-442.04999"
         sodipodi:role="line"
         id="tspan806">LPUE (tonnes per vessel)</tspan></text><path
       d="m 63.22,67.23 h 7.2 v 7.2 h -7.2 z"
       style="fill:#ffffff;fill-opacity:1;fill-rule:nonzero;stroke:none"
       id="path832" /><g
       transform="translate(-17.181819,6.0450377)"
       id="g1251"><path
         id="path844"
         style="fill:none;stroke:#3399e6;stroke-width:1.07;stroke-linecap:butt;stroke-linejoin:round;stroke-miterlimit:10;stroke-dasharray:none;stroke-opacity:1"
         d="M 63.94,70.83 H 69.7" /><path
         id="path850"
         style="fill:#ffffff;fill-opacity:1;fill-rule:nonzero;stroke:none"
         d="m 63.22,60.03 h 7.2 v 7.2 h -7.2 z" /><path
         id="path862"
         style="fill:none;stroke:#69b3a2;stroke-width:1.07;stroke-linecap:butt;stroke-linejoin:round;stroke-miterlimit:10;stroke-dasharray:none;stroke-opacity:1"
         d="M 63.94,63.63 H 69.7" /><text
         id="text874"
         style="font-variant:normal;font-weight:normal;font-size:5px;font-family:Helvetica;-inkscape-font-specification:Helvetica;writing-mode:lr-tb;fill:#000000;fill-opacity:1;fill-rule:nonzero;stroke:none"
         transform="scale(1,-1)"
         x="74.400002"
         y="-69.029999"><tspan
           id="tspan872"
           sodipodi:role="line"
           y="-69.029999"
           x="74.400002 77.735001 80.235001 82.735001 85.514999 88.294998 91.074997">Escapes</tspan></text><text
         id="text888"
         style="font-variant:normal;font-weight:normal;font-size:5px;font-family:Helvetica;-inkscape-font-specification:Helvetica;writing-mode:lr-tb;fill:#000000;fill-opacity:1;fill-rule:nonzero;stroke:none"
         transform="scale(1,-1)"
         x="74.400002"
         y="-61.830002"><tspan
           id="tspan886"
           sodipodi:role="line"
           y="-61.830002"
           x="74.400002 77.18 80.514999 84.125">LPUE</tspan></text></g><text
       y="-90.599998"
       x="2.22"
       transform="scale(1,-1)"
       style="font-variant:normal;font-weight:normal;font-size:8px;font-family:Helvetica;-inkscape-font-specification:Helvetica;writing-mode:lr-tb;fill:#000000;fill-opacity:1;fill-rule:nonzero;stroke:none"
       id="text922"><tspan
         x="2.22"
         y="-90.599998"
         id="tspan920">b</tspan></text></g></svg>
